<?xml version="1.0" standalone="no"?>
<!DOCTYPE svg PUBLIC "-//W3C//DTD SVG 20010904//EN"
 "http://www.w3.org/TR/2001/REC-SVG-20010904/DTD/svg10.dtd">
<svg version="1.0" xmlns="http://www.w3.org/2000/svg"
 width="600.000000pt" height="125.000000pt" viewBox="0 0 600.000000 125.000000"
 preserveAspectRatio="xMidYMid meet">

<g transform="translate(0.000000,125.000000) scale(0.100000,-0.100000)"
fill="#000000" stroke="none">
<path d="M0 625 l0 -625 3000 0 3000 0 0 625 0 625 -3000 0 -3000 0 0 -625z
m2987 165 c59 -35 78 -105 49 -175 -24 -56 -66 -75 -168 -75 l-88 0 0 -80 c0
-73 -2 -80 -20 -80 -19 0 -20 7 -20 215 l0 215 108 0 c88 0 113 -3 139 -20z
m163 -125 c0 -35 13 -47 23 -21 7 17 42 41 75 51 18 5 22 2 22 -14 0 -15 -6
-21 -21 -21 -12 0 -36 -15 -55 -34 l-34 -34 0 -106 c0 -99 -1 -106 -20 -106
-19 0 -20 7 -20 160 0 136 2 160 15 160 10 0 15 -11 15 -35z"/>
<path d="M2780 680 l0 -100 84 0 c100 0 112 4 131 41 19 36 19 72 0 110 -21
39 -50 49 -141 49 l-74 0 0 -100z"/>
</g>
</svg>
